<?xml version="1.0" encoding="UTF-8" standalone="no"?>
<svg
   xmlns:dc="http://purl.org/dc/elements/1.1/"
   xmlns:cc="http://creativecommons.org/ns#"
   xmlns:rdf="http://www.w3.org/1999/02/22-rdf-syntax-ns#"
   xmlns:svg="http://www.w3.org/2000/svg"
   xmlns="http://www.w3.org/2000/svg"
   xmlns:sodipodi="http://sodipodi.sourceforge.net/DTD/sodipodi-0.dtd"
   xmlns:inkscape="http://www.inkscape.org/namespaces/inkscape"
   inkscape:export-ydpi="96"
   inkscape:export-xdpi="96"
   inkscape:export-filename="/var/home/Nick/Pictures/_art/Mana/mana_2.png"
   sodipodi:docname="logo.svg"
   inkscape:version="1.0 (4035a4fb49, 2020-05-01)"
   id="svg8"
   version="1.1"
   viewBox="0 0 74.08333 15.875"
   height="60"
   width="280">
  <defs
     id="defs2">
    <rect
       x="34.210499"
       y="260.85507"
       width="480.01608"
       height="192.43407"
       id="rect19" />
    <rect
       x="34.210499"
       y="260.85507"
       width="480.01608"
       height="192.43407"
       id="rect19-7" />
  </defs>
  <sodipodi:namedview
     inkscape:guide-bbox="true"
     showguides="true"
     inkscape:window-maximized="1"
     inkscape:window-y="0"
     inkscape:window-x="0"
     inkscape:window-height="832"
     inkscape:window-width="1536"
     showgrid="false"
     inkscape:document-rotation="0"
     inkscape:current-layer="layer1"
     inkscape:document-units="px"
     inkscape:cy="-74.339918"
     inkscape:cx="-21.470638"
     inkscape:zoom="0.70000001"
     inkscape:pageshadow="2"
     inkscape:pageopacity="0.0"
     borderopacity="1.0"
     bordercolor="#666666"
     pagecolor="#ffffff"
     id="base"
     units="px" />
  <metadata
     id="metadata5">
    <rdf:RDF>
      <cc:Work
         rdf:about="">
        <dc:format>image/svg+xml</dc:format>
        <dc:type
           rdf:resource="http://purl.org/dc/dcmitype/StillImage" />
        <dc:title></dc:title>
      </cc:Work>
    </rdf:RDF>
  </metadata>
  <g
     style="display:none"
     inkscape:label="Backgroud"
     id="layer2"
     inkscape:groupmode="layer">
    <rect
       y="0.38045609"
       x="0.84561378"
       height="264.58334"
       width="661.45831"
       id="rect879"
       style="fill:#000000;fill-opacity:1;stroke-width:8.34366" />
  </g>
  <g
     style="display:inline"
     id="layer1"
     inkscape:groupmode="layer"
     inkscape:label="MANA">
    <path
       d="M 7.6123315,0.10673769 C 7.1459018,0.10999905 6.6926235,0.17372531 6.0887123,0.30185844 4.3364487,0.6669059 2.6721354,1.7881164 1.5667654,3.3265296 c -2.00348456,2.8030427 -2.00348456,6.6490919 0,9.4521344 2.5122056,3.513579 7.3042597,4.250186 10.6894596,1.642703 3.385196,-2.60748 4.094904,-7.5812561 1.582698,-11.0948374 C 12.664467,1.6838167 10.887063,0.55613512 8.9903475,0.23671854 8.445709,0.1481054 8.0238857,0.10386098 7.6123315,0.10673769 Z M 16.616307,0.40210573 V 4.1716156 l 2.813278,3.2178817 1.306162,1.4939746 1.888924,2.1605981 0.381808,-0.413766 0.502335,-0.597602 0.160741,-0.1838349 0.582763,-0.6435759 1.487011,-1.7239052 v 8.205583 h 2.81328 V 0.40210557 H 27.949738 L 22.624671,6.4930639 19.992243,3.482065 17.299549,0.40210557 Z m 30.302818,0 V 0.79282486 2.2408864 4.1716156 l 2.813276,3.2178817 1.929084,2.2065126 3.335783,3.8154851 1.989341,2.275473 h 0.683244 V 0.49405357 h -2.81328 V 8.6765897 L 47.602366,0.40210557 Z m -9.645407,0.068961 -0.1407,0.32175817 -1.14536,2.3904091 -0.140701,0.2988303 1.76834,3.6545752 0.04022,0.09195 1.306162,2.6891809 2.652481,5.4703656 0.1407,0.298833 h 3.536677 L 44.869517,14.790535 39.243016,3.183234 38.077487,0.79282486 37.956903,0.47106667 Z m 28.855961,0 -0.140642,0.32175817 -1.145419,2.3904091 -0.140641,0.2988303 1.768337,3.6545752 0.04016,0.09195 1.306159,2.6891809 2.652542,5.4703656 0.140642,0.298833 h 3.536665 L 73.725539,14.790535 68.098977,3.183234 66.933509,0.79282486 66.812925,0.47106667 Z M 7.7167126,0.64851437 c 2.2758275,0.00606 4.3408564,1.09685423 5.7955824,3.09524443 1.532443,2.1055408 1.745981,5.3192402 0.50872,7.7637562 C 12.99729,13.528311 11.00639,15.014594 8.8647348,15.353566 6.9931418,15.653428 5.247144,15.255767 3.6644536,14.167138 3.237379,13.873795 2.2639204,12.889526 1.9059322,12.387587 0.35464467,10.216857 0.14107268,7.0552915 1.3846148,4.5977408 2.3957771,2.5964983 4.4055189,1.0841516 6.5094918,0.74517923 6.9168916,0.67938103 7.3200088,0.64745674 7.7167126,0.64851437 Z M 7.1187505,2.6095146 c -0.056526,0 -4.6601571,4.7782136 -4.6601571,4.8368824 0,0.026079 0.3517248,0.045637 0.7850809,0.032601 L 4.0286962,7.465918 5.5925888,5.8427978 7.1626915,4.2131081 V 3.4113126 c 0,-0.4432715 -0.025076,-0.801798 -0.043941,-0.801798 z m 1.1681291,0 c -0.025105,0 -0.043941,0.3585265 -0.043941,0.801798 v 0.801799 l 1.5701616,1.6296892 1.5638338,1.6231202 0.785079,0.013095 c 0.433357,0.013065 0.785022,-0.00654 0.785022,-0.032601 0,-0.026079 -1.036238,-1.1212049 -2.311184,-2.4445026 C 9.3671887,3.6851166 8.312002,2.6095146 8.2868796,2.6095146 Z M 7.7028149,5.6732929 6.5534921,6.8662292 5.4041696,8.065673 6.5534921,9.2455329 7.7028149,10.425453 8.60724,9.4997634 C 9.1034012,8.9913024 9.6184031,8.4567566 9.7502941,8.3068269 L 9.9889228,8.0460891 8.8458693,6.8597215 Z m 27.0188461,0.1302201 -4.360557,8.987021 -0.422021,0.896434 h 3.53668 l 0.1407,-0.298832 2.873544,-5.9530334 z m 28.856022,0 -4.360615,8.987021 -0.421966,0.896434 h 3.536683 l 0.1407,-0.298832 2.873544,-5.9530334 z M 7.7028149,6.7814456 8.2868796,7.3877054 c 0.3140264,0.3259364 0.5778552,0.6258391 0.5778552,0.6649512 0,0.039114 -0.2638209,0.3389443 -0.5841239,0.6714 L 7.7028149,9.3237479 7.0873473,8.6849478 6.4718201,8.0395802 7.0873473,7.4137973 Z m 8.9134921,0.5620781 v 8.3434443 h 2.813278 v -5.125624 z m 30.302818,0 v 8.3434443 h 2.813276 V 10.561344 Z M 3.2310775,8.6132414 c -0.4270751,0 -0.7724841,0.026079 -0.7724841,0.045616 0,0.058671 4.6036324,4.8368856 4.6601571,4.8368856 0.025105,0 0.043965,-0.365029 0.031403,-0.814816 L 7.1376159,11.86605 5.5737233,10.24293 4.0036204,8.6132414 Z m 8.1709915,0 -1.570162,1.6296886 -1.5638337,1.62312 -0.012538,0.814875 c -0.012567,0.449788 0.00624,0.814815 0.031345,0.814815 0.056526,0 4.6601567,-4.7782153 4.6601567,-4.8368841 0,-0.026079 -0.345407,-0.045617 -0.772483,-0.045617 z"
       style="font-style:normal;font-variant:normal;font-weight:bold;font-stretch:normal;font-size:132.292px;line-height:1.55;font-family:Aquire;-inkscape-font-specification:'Aquire, Bold';font-variant-ligatures:normal;font-variant-caps:normal;font-variant-numeric:normal;font-variant-east-asian:normal;text-align:center;text-anchor:middle;white-space:pre;fill:#1ed5c3;fill-opacity:1;stroke:none;stroke-width:0.162453"
       id="path45" />
  </g>
  <g
     style="display:inline"
     inkscape:label="Logo"
     id="layer3"
     inkscape:groupmode="layer" />
</svg>
